<svg width="100" height="100" viewBox="0 0 100 100" fill="none" xmlns="http://www.w3.org/2000/svg">
<path d="M80 36.667H73.333C71.491 36.667 70 35.176 70 33.333C70 31.491 71.491 30 73.333 30H80C81.843 30 83.333 31.491 83.333 33.333H90C90 27.812 85.521 23.333 80 23.333V16.667H73.333V23.333C67.812 23.333 63.333 27.81 63.333 33.333C63.333 38.854 67.812 43.333 73.333 43.333H80C81.843 43.333 83.333 44.824 83.333 46.667H83.327C83.327 48.509 81.836 50 79.993 50H73.333C71.491 50 70 48.509 70 46.667H63.333C63.333 52.188 67.812 56.667 73.333 56.667V63.333H80V56.667C85.521 56.66 89.997 52.188 89.997 46.667H90C90 41.146 85.521 36.667 80 36.667Z" fill="black"/>
<path d="M36.667 23.333H23.333V30H36.667V23.333Z" fill="black"/>
<path d="M43.333 36.667H23.333V43.333H43.333V36.667Z" fill="black"/>
<path d="M43.333 50H23.333V56.667H43.333V50Z" fill="black"/>
<path d="M56.667 70V10H10V76.667C10 84.03 15.97 90 23.333 90H66.667C74.03 90 80 84.03 80 76.667V70H56.667ZM16.667 76.667V16.667H50V70H30V76.667C30 80.349 27.015 83.333 23.333 83.333C19.651 83.333 16.667 80.349 16.667 76.667ZM66.667 83.333H34.817C35.963 81.364 36.667 79.108 36.667 76.667H73.333C73.333 80.349 70.349 83.333 66.667 83.333Z" fill="black"/>
</svg>
