<svg width="100" height="100" viewBox="0 0 100 100" fill="none" xmlns="http://www.w3.org/2000/svg">
<path d="M53.333 70C55.176 70 56.667 71.49 56.667 73.334C56.667 75.176 55.176 76.666 53.333 76.666C51.491 76.666 50 75.176 50 73.334C50 71.49 51.491 70 53.333 70Z" fill="black"/>
<path d="M56.667 53.334V36.667H50V56.667C50 58.51 51.491 60 53.333 60H73.333V53.334H56.667Z" fill="black"/>
<path d="M43.333 53.334H13.333V60H43.333V53.334Z" fill="black"/>
<path d="M43.333 40H13.333V46.667H43.333V40Z" fill="black"/>
<path d="M43.333 66.666H13.333V73.334H43.333V66.666Z" fill="black"/>
<path d="M31.9321 31.159C36.9271 26.965 43.1441 24.183 50.0001 23.503V16.667H40.0001V10H66.6671V16.667H56.6671V23.5C61.3381 23.965 65.7161 25.407 69.6161 27.598L73.5451 21.989L79.0071 25.816L75.0701 31.433C82.1611 37.543 86.6671 46.569 86.6671 56.667C86.6671 75.074 71.7411 90 53.3331 90C45.1761 90 37.7081 87.061 31.9141 82.193L36.1981 77.089C40.8331 80.983 46.8071 83.333 53.3331 83.333C68.0611 83.334 80.0001 71.393 80.0001 56.666C80.0001 41.938 68.0611 30 53.3331 30C46.8051 30 40.8331 32.352 36.1981 36.245L31.9321 31.159Z" fill="black"/>
</svg>
