<svg width="100" height="100" viewBox="0 0 100 100" fill="none" xmlns="http://www.w3.org/2000/svg">
<path d="M16.667 10V40.091C16.673 47.252 18.083 54.271 20.774 60.767C26.067 73.541 36.224 84.293 50 90C63.776 84.293 73.933 73.541 79.226 60.768C81.917 54.272 83.328 47.253 83.333 40.092V10H16.667ZM76.667 40.091C76.66 46.363 75.449 52.465 73.066 58.216C68.581 69.039 60.449 77.643 50 82.695C39.548 77.64 31.416 69.037 26.934 58.216C24.551 52.46 23.34 46.36 23.333 40.084V16.667H76.667V40.091Z" fill="black"/>
<path d="M53.333 42.723C57.207 41.344 60 37.682 60 33.335C60 27.811 55.521 23.334 50 23.334C44.479 23.334 40 27.812 40 33.335C40 37.682 42.793 41.344 46.667 42.723V66.666H58.333V60H53.333V55H58.333V48.333H53.333V42.723ZM50 30C51.843 30 53.333 31.493 53.333 33.335C53.333 35.176 51.843 36.668 50 36.668C48.157 36.668 46.667 35.175 46.667 33.335C46.667 31.493 48.157 30 50 30Z" fill="black"/>
</svg>
