<svg width="32" height="32" viewBox="0 0 32 32" fill="none" xmlns="http://www.w3.org/2000/svg">
<path id="Vector" d="M29.1828 18.3518C30.0953 18.1007 31.0079 17.8487 31.9204 17.5976C31.9726 17.0721 32 16.5391 32 15.9996C32 15.46 31.9726 14.9271 31.9204 14.4016C31.0079 14.1505 30.0953 13.8985 29.1828 13.6474C28.838 11.7013 28.0721 9.90194 26.9838 8.34375C27.4513 7.52073 27.9188 6.69688 28.3862 5.87386C27.7099 5.04753 26.9523 4.28998 26.126 3.61367C25.3029 4.08112 24.4791 4.54858 23.656 5.01603C22.0978 3.92779 20.2976 3.16196 18.3523 2.81717C18.1011 1.90463 17.8492 0.9921 17.598 0.0795669C17.0725 0.0273511 16.5396 0 16 0C15.4604 0 14.9275 0.0273511 14.402 0.0795669C14.1509 0.9921 13.8989 1.90463 13.6477 2.81717C11.7016 3.16196 9.9022 3.92779 8.34397 5.01603C7.52093 4.54858 6.69706 4.08112 5.87402 3.61367C5.04766 4.28998 4.2901 5.04753 3.61376 5.87386C4.08123 6.69688 4.54869 7.52073 5.01616 8.34375C3.92789 9.90194 3.16204 11.7021 2.81724 13.6474C1.90468 13.8985 0.992126 14.1505 0.079569 14.4016C0.0273518 14.9271 0 15.46 0 15.9996C0 16.5391 0.0273518 17.0721 0.079569 17.5976C0.992126 17.8487 1.90468 18.1007 2.81724 18.3518C3.16204 20.2979 3.92789 22.0981 5.01616 23.6562C4.54869 24.4793 4.08123 25.3031 3.61376 26.1261C4.2901 26.9525 5.04766 27.71 5.87402 28.3863C6.69706 27.9189 7.52093 27.4514 8.34397 26.984C9.9022 28.0722 11.7024 28.838 13.6477 29.1828C13.8989 30.0954 14.1509 31.0079 14.402 31.9204C14.9275 31.9727 15.4604 32 16 32C16.5396 32 17.0725 31.9727 17.598 31.9204C17.8492 31.0079 18.1011 30.0954 18.3523 29.1828C20.2984 28.838 22.0978 28.0722 23.656 26.984C24.4791 27.4514 25.3029 27.9189 26.126 28.3863C26.9523 27.71 27.7099 26.9525 28.3862 26.1261C27.9188 25.3031 27.4513 24.4793 26.9838 23.6562C28.0721 22.0981 28.838 20.2979 29.1828 18.3518ZM26.5421 16.7679C26.0348 20.302 23.1438 18.5051 19.4637 16.3717C19.8823 14.4547 19.0427 12.4066 17.2524 11.3731C15.6428 10.444 13.7074 10.5907 12.2785 11.5903L16.0008 13.7394V15.9996L14.0431 17.1301L10.3208 14.981C10.1699 16.7182 11.0104 18.4678 12.62 19.3969C14.4103 20.4305 16.6034 20.1329 18.0547 18.8126C21.7455 20.9352 24.7501 22.5407 21.9295 24.7511C20.2387 25.8982 18.1989 26.5696 16.0017 26.5696C10.1641 26.5696 5.43224 21.8378 5.43224 16.0004C5.43224 10.163 10.1641 5.43127 16.0017 5.43127C21.8392 5.43127 26.5711 10.163 26.5711 16.0004C26.5711 16.259 26.5611 16.5151 26.5429 16.7687L26.5421 16.7679Z" fill="url(#paint0_linear_224_299)"/>
<defs>
<linearGradient id="paint0_linear_224_299" x1="0.00165769" y1="15.9996" x2="32" y2="15.9996" gradientUnits="userSpaceOnUse">
<stop stop-color="#32A6DE"/>
<stop offset="1" stop-color="#2579BA"/>
</linearGradient>
</defs>
</svg>
